<?xml version="1.0" encoding="UTF-8"?>
<!DOCTYPE svg PUBLIC "-//W3C//DTD SVG 1.1//EN" "http://www.w3.org/Graphics/SVG/1.1/DTD/svg11.dtd">
<svg version="1.1" xmlns="http://www.w3.org/2000/svg" xmlns:xlink="http://www.w3.org/1999/xlink" x="0" y="0" width="355.043" height="350.601" viewBox="0, 0, 355.043, 350.601">
  <g id="Livello_5" transform="translate(-72.383, -191.914)">
    <path d="M147.341,193.414 L189.934,193.414 L189.934,220.803 L147.341,220.803 L147.341,193.414 z" fill-opacity="0" stroke="#017782" stroke-width="1"/>
    <path d="M272.67,197.659 L315.263,197.659 L315.263,225.049 L272.67,225.049 L272.67,197.659 z" fill-opacity="0" stroke="#017782" stroke-width="1"/>
    <path d="M384.333,197.659 L426.925,197.659 L426.925,225.049 L384.333,225.049 L384.333,197.659 z" fill-opacity="0" stroke="#017782" stroke-width="1"/>
    <path d="M293.967,511.388 L336.559,511.388 L336.559,538.778 L293.967,538.778 L293.967,511.388 z" fill-opacity="0" stroke="#017782" stroke-width="1"/>
    <path d="M147.341,514.626 L189.934,514.626 L189.934,542.015 L147.341,542.015 L147.341,514.626 z" fill-opacity="0" stroke="#017782" stroke-width="1"/>
    <path d="M73.883,387.006 L116.475,387.006 L116.475,414.396 L73.883,414.396 L73.883,387.006 z" fill-opacity="0" stroke="#017782" stroke-width="1"/>
  </g>
</svg>
