<?xml version="1.0" encoding="UTF-8"?>
<!DOCTYPE svg PUBLIC "-//W3C//DTD SVG 1.1//EN" "http://www.w3.org/Graphics/SVG/1.1/DTD/svg11.dtd">
<svg version="1.1" xmlns="http://www.w3.org/2000/svg" xmlns:xlink="http://www.w3.org/1999/xlink" x="0" y="0" width="260.813" height="181.921" viewBox="0, 0, 260.813, 181.921">
  <g id="Livello_4" transform="translate(-167.138, -322.935)">
    <path d="M196.511,358.834 L217.808,358.834 L217.808,386.223 L196.511,386.223 L196.511,358.834 z" fill-opacity="0" stroke="#DB0606" stroke-width="1"/>
    <path d="M315.263,366.168 L336.559,366.168 L336.559,393.558 L315.263,393.558 L315.263,366.168 z" fill-opacity="0" stroke="#DB0606" stroke-width="1"/>
    <path d="M336.559,408.353 L357.856,408.353 L357.856,435.742 L336.559,435.742 L336.559,408.353 z" fill-opacity="0" stroke="#DB0606" stroke-width="1"/>
    <path d="M231.817,413.498 L253.114,413.498 L253.114,440.888 L231.817,440.888 L231.817,413.498 z" fill-opacity="0" stroke="#DB0606" stroke-width="1"/>
    <path d="M231.817,460.702 L253.114,460.702 L253.114,488.091 L231.817,488.091 L231.817,460.702 z" fill-opacity="0" stroke="#DB0606" stroke-width="1"/>
    <path d="M168.638,382.805 L189.934,382.805 L189.934,410.195 L168.638,410.195 L168.638,382.805 z" fill-opacity="0" stroke="#DB0606" stroke-width="1"/>
    <path d="M370.06,346.704 L391.357,346.704 L391.357,374.093 L370.06,374.093 L370.06,346.704 z" fill-opacity="0" stroke="#DB0606" stroke-width="1"/>
    <path d="M406.154,324.435 L427.451,324.435 L427.451,351.824 L406.154,351.824 L406.154,324.435 z" fill-opacity="0" stroke="#DB0606" stroke-width="1"/>
    <path d="M394.981,476.966 L416.277,476.966 L416.277,504.355 L394.981,504.355 L394.981,476.966 z" fill-opacity="0" stroke="#DB0606" stroke-width="1"/>
    <path d="M196.511,417.539 L217.808,417.539 L217.808,444.928 L196.511,444.928 L196.511,417.539 z" fill-opacity="0" stroke="#DB0606" stroke-width="1"/>
  </g>
</svg>
